<mxfile host="app.diagrams.net" modified="2024-04-05T22:36:48.348Z" agent="Mozilla/5.0 (Windows NT 10.0; Win64; x64) AppleWebKit/537.36 (KHTML, like Gecko) Chrome/123.0.0.0 Safari/537.36 Edg/123.0.0.0" etag="wshXis_75Rgx9zzgOX0O" version="24.2.2" type="github">
  <diagram name="Page-1" id="A8W0ZlJkRZm1EOQpJBz_">
    <mxGraphModel dx="1008" dy="673" grid="1" gridSize="10" guides="1" tooltips="1" connect="1" arrows="1" fold="1" page="1" pageScale="1" pageWidth="850" pageHeight="1100" math="0" shadow="0">
      <root>
        <mxCell id="0" />
        <mxCell id="1" parent="0" />
        <mxCell id="IkylSo1uZ2_LeTpLnhAb-4" style="edgeStyle=orthogonalEdgeStyle;rounded=0;orthogonalLoop=1;jettySize=auto;html=1;endArrow=none;endFill=0;strokeWidth=4;entryX=0.5;entryY=1;entryDx=0;entryDy=0;" edge="1" parent="1">
          <mxGeometry relative="1" as="geometry">
            <mxPoint x="486" y="330" as="targetPoint" />
            <mxPoint x="550" y="185" as="sourcePoint" />
            <Array as="points">
              <mxPoint x="550" y="230" />
              <mxPoint x="485" y="230" />
            </Array>
          </mxGeometry>
        </mxCell>
        <mxCell id="uq200lhuQBNym-ZLv9r4-198" value="x4 PCIe" style="text;html=1;align=center;verticalAlign=middle;resizable=0;points=[];autosize=1;strokeColor=none;fillColor=none;fontFamily=Helvetica;fontSize=11;fontColor=default;labelBackgroundColor=default;" parent="1" vertex="1">
          <mxGeometry x="374.58000000000004" y="300.2" width="60" height="30" as="geometry" />
        </mxCell>
        <mxCell id="siB9gwOaP5ev9PkQdLU9-40" value="" style="group" parent="1" connectable="0" vertex="1">
          <mxGeometry x="459.99999999999994" y="329.9994117647059" width="80" height="93.5305882352942" as="geometry" />
        </mxCell>
        <mxCell id="siB9gwOaP5ev9PkQdLU9-41" value="" style="rounded=1;whiteSpace=wrap;html=1;direction=south;fillColor=#ffb20d;arcSize=7;strokeColor=#d79b00;rotation=90;" parent="siB9gwOaP5ev9PkQdLU9-40" vertex="1">
          <mxGeometry x="15.710000000000036" y="-10.179411764705833" width="19.641176470588235" height="40" as="geometry" />
        </mxCell>
        <mxCell id="siB9gwOaP5ev9PkQdLU9-42" value="" style="rounded=0;whiteSpace=wrap;html=1;strokeWidth=1;fillColor=#a2d460;strokeColor=#60a512;fontSize=10;gradientColor=#60a512;rotation=90;" parent="siB9gwOaP5ev9PkQdLU9-40" vertex="1">
          <mxGeometry x="-2.9999999999999716" y="10.530588235294204" width="86" height="80" as="geometry" />
        </mxCell>
        <mxCell id="siB9gwOaP5ev9PkQdLU9-43" value="" style="ellipse;whiteSpace=wrap;html=1;aspect=fixed;strokeWidth=3;shadow=0;strokeColor=#ffffff;rotation=90;" parent="siB9gwOaP5ev9PkQdLU9-40" vertex="1">
          <mxGeometry x="73.71000000000004" y="12.820588235294167" width="2" height="2" as="geometry" />
        </mxCell>
        <mxCell id="siB9gwOaP5ev9PkQdLU9-44" value="" style="ellipse;whiteSpace=wrap;html=1;aspect=fixed;strokeWidth=3;shadow=0;strokeColor=#ffffff;rotation=90;" parent="siB9gwOaP5ev9PkQdLU9-40" vertex="1">
          <mxGeometry x="73.71000000000004" y="85.82058823529417" width="2" height="2" as="geometry" />
        </mxCell>
        <mxCell id="siB9gwOaP5ev9PkQdLU9-45" value="" style="ellipse;whiteSpace=wrap;html=1;aspect=fixed;strokeWidth=3;shadow=0;strokeColor=#ffffff;rotation=90;" parent="siB9gwOaP5ev9PkQdLU9-40" vertex="1">
          <mxGeometry x="-44.289999999999964" y="-26.97941176470583" width="2" height="2" as="geometry" />
        </mxCell>
        <mxCell id="siB9gwOaP5ev9PkQdLU9-46" value="" style="ellipse;whiteSpace=wrap;html=1;aspect=fixed;strokeWidth=3;shadow=0;strokeColor=#ffffff;rotation=90;" parent="siB9gwOaP5ev9PkQdLU9-40" vertex="1">
          <mxGeometry x="-44.289999999999964" y="46.02058823529417" width="2" height="2" as="geometry" />
        </mxCell>
        <mxCell id="siB9gwOaP5ev9PkQdLU9-47" value="" style="rounded=1;whiteSpace=wrap;html=1;fillColor=#f8cecc;strokeColor=#b85450;" parent="siB9gwOaP5ev9PkQdLU9-40" vertex="1">
          <mxGeometry x="5" y="20" width="70" height="10" as="geometry" />
        </mxCell>
        <mxCell id="siB9gwOaP5ev9PkQdLU9-48" value="" style="rounded=1;whiteSpace=wrap;html=1;fillColor=#f8cecc;strokeColor=#b85450;" parent="siB9gwOaP5ev9PkQdLU9-40" vertex="1">
          <mxGeometry x="5" y="30" width="70" height="10" as="geometry" />
        </mxCell>
        <mxCell id="siB9gwOaP5ev9PkQdLU9-49" value="" style="rounded=1;whiteSpace=wrap;html=1;fillColor=#f8cecc;strokeColor=#b85450;" parent="siB9gwOaP5ev9PkQdLU9-40" vertex="1">
          <mxGeometry x="5" y="40" width="70" height="10" as="geometry" />
        </mxCell>
        <mxCell id="siB9gwOaP5ev9PkQdLU9-50" value="" style="rounded=1;whiteSpace=wrap;html=1;fillColor=#f8cecc;strokeColor=#b85450;" parent="siB9gwOaP5ev9PkQdLU9-40" vertex="1">
          <mxGeometry x="5" y="50" width="70" height="10" as="geometry" />
        </mxCell>
        <mxCell id="siB9gwOaP5ev9PkQdLU9-51" value="" style="rounded=1;whiteSpace=wrap;html=1;gradientColor=#ffaa05;fillColor=#ffcb26;strokeColor=#d79b00;" parent="siB9gwOaP5ev9PkQdLU9-40" vertex="1">
          <mxGeometry x="5" y="60" width="70" height="10" as="geometry" />
        </mxCell>
        <mxCell id="siB9gwOaP5ev9PkQdLU9-52" value="" style="rounded=1;whiteSpace=wrap;html=1;gradientColor=#ffaa05;fillColor=#ffcb26;strokeColor=#d79b00;" parent="siB9gwOaP5ev9PkQdLU9-40" vertex="1">
          <mxGeometry x="5" y="70" width="70" height="10" as="geometry" />
        </mxCell>
        <mxCell id="siB9gwOaP5ev9PkQdLU9-56" value="" style="group" parent="1" connectable="0" vertex="1">
          <mxGeometry x="590" y="329.9994117647059" width="80" height="93.5305882352942" as="geometry" />
        </mxCell>
        <mxCell id="siB9gwOaP5ev9PkQdLU9-57" value="" style="rounded=1;whiteSpace=wrap;html=1;direction=south;fillColor=#ffb20d;arcSize=7;strokeColor=#d79b00;rotation=90;" parent="siB9gwOaP5ev9PkQdLU9-56" vertex="1">
          <mxGeometry x="15.710000000000036" y="-10.179411764705833" width="19.641176470588235" height="40" as="geometry" />
        </mxCell>
        <mxCell id="siB9gwOaP5ev9PkQdLU9-58" value="" style="rounded=0;whiteSpace=wrap;html=1;strokeWidth=1;fillColor=#a2d460;strokeColor=#60a512;fontSize=10;gradientColor=#60a512;rotation=90;" parent="siB9gwOaP5ev9PkQdLU9-56" vertex="1">
          <mxGeometry x="-2.9999999999999716" y="10.530588235294204" width="86" height="80" as="geometry" />
        </mxCell>
        <mxCell id="siB9gwOaP5ev9PkQdLU9-59" value="" style="ellipse;whiteSpace=wrap;html=1;aspect=fixed;strokeWidth=3;shadow=0;strokeColor=#ffffff;rotation=90;" parent="siB9gwOaP5ev9PkQdLU9-56" vertex="1">
          <mxGeometry x="73.71000000000004" y="12.820588235294167" width="2" height="2" as="geometry" />
        </mxCell>
        <mxCell id="siB9gwOaP5ev9PkQdLU9-60" value="" style="ellipse;whiteSpace=wrap;html=1;aspect=fixed;strokeWidth=3;shadow=0;strokeColor=#ffffff;rotation=90;" parent="siB9gwOaP5ev9PkQdLU9-56" vertex="1">
          <mxGeometry x="73.71000000000004" y="85.82058823529417" width="2" height="2" as="geometry" />
        </mxCell>
        <mxCell id="siB9gwOaP5ev9PkQdLU9-61" value="" style="ellipse;whiteSpace=wrap;html=1;aspect=fixed;strokeWidth=3;shadow=0;strokeColor=#ffffff;rotation=90;" parent="siB9gwOaP5ev9PkQdLU9-56" vertex="1">
          <mxGeometry x="5.710000000000036" y="12.820588235294167" width="2" height="2" as="geometry" />
        </mxCell>
        <mxCell id="siB9gwOaP5ev9PkQdLU9-62" value="" style="ellipse;whiteSpace=wrap;html=1;aspect=fixed;strokeWidth=3;shadow=0;strokeColor=#ffffff;rotation=90;" parent="siB9gwOaP5ev9PkQdLU9-56" vertex="1">
          <mxGeometry x="5.710000000000036" y="85.82058823529417" width="2" height="2" as="geometry" />
        </mxCell>
        <mxCell id="siB9gwOaP5ev9PkQdLU9-63" value="" style="rounded=1;whiteSpace=wrap;html=1;gradientColor=#ffaa05;fillColor=#ffcb26;strokeColor=#d79b00;" parent="siB9gwOaP5ev9PkQdLU9-56" vertex="1">
          <mxGeometry x="5" y="20" width="70" height="10" as="geometry" />
        </mxCell>
        <mxCell id="siB9gwOaP5ev9PkQdLU9-64" value="" style="rounded=1;whiteSpace=wrap;html=1;gradientColor=#ffaa05;fillColor=#ffcb26;strokeColor=#d79b00;" parent="siB9gwOaP5ev9PkQdLU9-56" vertex="1">
          <mxGeometry x="5" y="30" width="70" height="10" as="geometry" />
        </mxCell>
        <mxCell id="siB9gwOaP5ev9PkQdLU9-65" value="" style="rounded=1;whiteSpace=wrap;html=1;gradientColor=#ffaa05;fillColor=#ffcb26;strokeColor=#d79b00;" parent="siB9gwOaP5ev9PkQdLU9-56" vertex="1">
          <mxGeometry x="5" y="40" width="70" height="10" as="geometry" />
        </mxCell>
        <mxCell id="siB9gwOaP5ev9PkQdLU9-66" value="" style="rounded=1;whiteSpace=wrap;html=1;gradientColor=#ffaa05;fillColor=#ffcb26;strokeColor=#d79b00;" parent="siB9gwOaP5ev9PkQdLU9-56" vertex="1">
          <mxGeometry x="5" y="50" width="70" height="10" as="geometry" />
        </mxCell>
        <mxCell id="siB9gwOaP5ev9PkQdLU9-67" value="" style="rounded=1;whiteSpace=wrap;html=1;gradientColor=#ffaa05;fillColor=#ffcb26;strokeColor=#d79b00;" parent="siB9gwOaP5ev9PkQdLU9-56" vertex="1">
          <mxGeometry x="5" y="60" width="70" height="10" as="geometry" />
        </mxCell>
        <mxCell id="siB9gwOaP5ev9PkQdLU9-68" value="" style="rounded=1;whiteSpace=wrap;html=1;gradientColor=#ffaa05;fillColor=#ffcb26;strokeColor=#d79b00;" parent="siB9gwOaP5ev9PkQdLU9-56" vertex="1">
          <mxGeometry x="5" y="70" width="70" height="10" as="geometry" />
        </mxCell>
        <mxCell id="siB9gwOaP5ev9PkQdLU9-71" value="" style="group" parent="1" connectable="0" vertex="1">
          <mxGeometry x="219.99999999999994" y="330.19941176470587" width="80" height="93.5305882352942" as="geometry" />
        </mxCell>
        <mxCell id="siB9gwOaP5ev9PkQdLU9-72" value="" style="rounded=1;whiteSpace=wrap;html=1;direction=south;fillColor=#ffb20d;arcSize=7;strokeColor=#d79b00;rotation=90;" parent="siB9gwOaP5ev9PkQdLU9-71" vertex="1">
          <mxGeometry x="15.710000000000036" y="-10.179411764705833" width="19.641176470588235" height="40" as="geometry" />
        </mxCell>
        <mxCell id="siB9gwOaP5ev9PkQdLU9-73" value="" style="rounded=0;whiteSpace=wrap;html=1;strokeWidth=1;fillColor=#a2d460;strokeColor=#60a512;fontSize=10;gradientColor=#60a512;rotation=90;" parent="siB9gwOaP5ev9PkQdLU9-71" vertex="1">
          <mxGeometry x="-2.9999999999999716" y="10.530588235294204" width="86" height="80" as="geometry" />
        </mxCell>
        <mxCell id="siB9gwOaP5ev9PkQdLU9-74" value="" style="ellipse;whiteSpace=wrap;html=1;aspect=fixed;strokeWidth=3;shadow=0;strokeColor=#ffffff;rotation=90;" parent="siB9gwOaP5ev9PkQdLU9-71" vertex="1">
          <mxGeometry x="73.71000000000004" y="12.820588235294167" width="2" height="2" as="geometry" />
        </mxCell>
        <mxCell id="siB9gwOaP5ev9PkQdLU9-75" value="" style="ellipse;whiteSpace=wrap;html=1;aspect=fixed;strokeWidth=3;shadow=0;strokeColor=#ffffff;rotation=90;" parent="siB9gwOaP5ev9PkQdLU9-71" vertex="1">
          <mxGeometry x="73.71000000000004" y="85.82058823529417" width="2" height="2" as="geometry" />
        </mxCell>
        <mxCell id="siB9gwOaP5ev9PkQdLU9-76" value="" style="ellipse;whiteSpace=wrap;html=1;aspect=fixed;strokeWidth=3;shadow=0;strokeColor=#ffffff;rotation=90;" parent="siB9gwOaP5ev9PkQdLU9-71" vertex="1">
          <mxGeometry x="5.710000000000036" y="12.820588235294167" width="2" height="2" as="geometry" />
        </mxCell>
        <mxCell id="siB9gwOaP5ev9PkQdLU9-77" value="" style="ellipse;whiteSpace=wrap;html=1;aspect=fixed;strokeWidth=3;shadow=0;strokeColor=#ffffff;rotation=90;" parent="siB9gwOaP5ev9PkQdLU9-71" vertex="1">
          <mxGeometry x="5.710000000000036" y="85.82058823529417" width="2" height="2" as="geometry" />
        </mxCell>
        <mxCell id="siB9gwOaP5ev9PkQdLU9-78" value="" style="rounded=1;whiteSpace=wrap;html=1;fillColor=#f8cecc;strokeColor=#b85450;" parent="siB9gwOaP5ev9PkQdLU9-71" vertex="1">
          <mxGeometry x="5" y="20" width="70" height="10" as="geometry" />
        </mxCell>
        <mxCell id="siB9gwOaP5ev9PkQdLU9-79" value="" style="rounded=1;whiteSpace=wrap;html=1;fillColor=#f8cecc;strokeColor=#b85450;" parent="siB9gwOaP5ev9PkQdLU9-71" vertex="1">
          <mxGeometry x="5" y="30" width="70" height="10" as="geometry" />
        </mxCell>
        <mxCell id="siB9gwOaP5ev9PkQdLU9-80" value="" style="rounded=1;whiteSpace=wrap;html=1;fillColor=#f8cecc;strokeColor=#b85450;" parent="siB9gwOaP5ev9PkQdLU9-71" vertex="1">
          <mxGeometry x="5" y="40" width="70" height="10" as="geometry" />
        </mxCell>
        <mxCell id="siB9gwOaP5ev9PkQdLU9-81" value="" style="rounded=1;whiteSpace=wrap;html=1;fillColor=#dae8fc;strokeColor=#6c8ebf;" parent="siB9gwOaP5ev9PkQdLU9-71" vertex="1">
          <mxGeometry x="5" y="50" width="70" height="10" as="geometry" />
        </mxCell>
        <mxCell id="siB9gwOaP5ev9PkQdLU9-82" value="" style="rounded=1;whiteSpace=wrap;html=1;fillColor=#dae8fc;strokeColor=#6c8ebf;" parent="siB9gwOaP5ev9PkQdLU9-71" vertex="1">
          <mxGeometry x="5" y="60" width="70" height="10" as="geometry" />
        </mxCell>
        <mxCell id="siB9gwOaP5ev9PkQdLU9-83" value="" style="rounded=1;whiteSpace=wrap;html=1;fillColor=#dae8fc;strokeColor=#6c8ebf;" parent="siB9gwOaP5ev9PkQdLU9-71" vertex="1">
          <mxGeometry x="5" y="70" width="70" height="10" as="geometry" />
        </mxCell>
        <mxCell id="siB9gwOaP5ev9PkQdLU9-84" value="Multi-Logical Device (MLD)" style="text;html=1;align=center;verticalAlign=middle;resizable=0;points=[];autosize=1;strokeColor=none;fillColor=none;fontFamily=Helvetica;fontSize=11;fontColor=default;labelBackgroundColor=default;" parent="1" vertex="1">
          <mxGeometry x="180.00000000000006" y="423.72999999999996" width="160" height="30" as="geometry" />
        </mxCell>
        <mxCell id="siB9gwOaP5ev9PkQdLU9-87" value="" style="group" parent="1" connectable="0" vertex="1">
          <mxGeometry x="349.99999999999994" y="330.19941176470587" width="80" height="93.5305882352942" as="geometry" />
        </mxCell>
        <mxCell id="siB9gwOaP5ev9PkQdLU9-88" value="" style="rounded=1;whiteSpace=wrap;html=1;direction=south;fillColor=#ffb20d;arcSize=7;strokeColor=#d79b00;rotation=90;" parent="siB9gwOaP5ev9PkQdLU9-87" vertex="1">
          <mxGeometry x="15.710000000000036" y="-10.179411764705833" width="19.641176470588235" height="40" as="geometry" />
        </mxCell>
        <mxCell id="siB9gwOaP5ev9PkQdLU9-89" value="" style="rounded=0;whiteSpace=wrap;html=1;strokeWidth=1;fillColor=#a2d460;strokeColor=#60a512;fontSize=10;gradientColor=#60a512;rotation=90;" parent="siB9gwOaP5ev9PkQdLU9-87" vertex="1">
          <mxGeometry x="-2.9999999999999716" y="10.530588235294204" width="86" height="80" as="geometry" />
        </mxCell>
        <mxCell id="siB9gwOaP5ev9PkQdLU9-90" value="" style="ellipse;whiteSpace=wrap;html=1;aspect=fixed;strokeWidth=3;shadow=0;strokeColor=#ffffff;rotation=90;" parent="siB9gwOaP5ev9PkQdLU9-87" vertex="1">
          <mxGeometry x="73.71000000000004" y="12.820588235294167" width="2" height="2" as="geometry" />
        </mxCell>
        <mxCell id="siB9gwOaP5ev9PkQdLU9-91" value="" style="ellipse;whiteSpace=wrap;html=1;aspect=fixed;strokeWidth=3;shadow=0;strokeColor=#ffffff;rotation=90;" parent="siB9gwOaP5ev9PkQdLU9-87" vertex="1">
          <mxGeometry x="73.71000000000004" y="85.82058823529417" width="2" height="2" as="geometry" />
        </mxCell>
        <mxCell id="siB9gwOaP5ev9PkQdLU9-92" value="" style="ellipse;whiteSpace=wrap;html=1;aspect=fixed;strokeWidth=3;shadow=0;strokeColor=#ffffff;rotation=90;" parent="siB9gwOaP5ev9PkQdLU9-87" vertex="1">
          <mxGeometry x="5.710000000000036" y="12.820588235294167" width="2" height="2" as="geometry" />
        </mxCell>
        <mxCell id="siB9gwOaP5ev9PkQdLU9-93" value="" style="ellipse;whiteSpace=wrap;html=1;aspect=fixed;strokeWidth=3;shadow=0;strokeColor=#ffffff;rotation=90;" parent="siB9gwOaP5ev9PkQdLU9-87" vertex="1">
          <mxGeometry x="5.710000000000036" y="85.82058823529417" width="2" height="2" as="geometry" />
        </mxCell>
        <mxCell id="siB9gwOaP5ev9PkQdLU9-94" value="" style="rounded=1;whiteSpace=wrap;html=1;fillColor=#dae8fc;strokeColor=#6c8ebf;" parent="siB9gwOaP5ev9PkQdLU9-87" vertex="1">
          <mxGeometry x="5" y="20" width="70" height="10" as="geometry" />
        </mxCell>
        <mxCell id="siB9gwOaP5ev9PkQdLU9-95" value="" style="rounded=1;whiteSpace=wrap;html=1;fillColor=#dae8fc;strokeColor=#6c8ebf;" parent="siB9gwOaP5ev9PkQdLU9-87" vertex="1">
          <mxGeometry x="5" y="30" width="70" height="10" as="geometry" />
        </mxCell>
        <mxCell id="siB9gwOaP5ev9PkQdLU9-96" value="" style="rounded=1;whiteSpace=wrap;html=1;fillColor=#dae8fc;strokeColor=#6c8ebf;" parent="siB9gwOaP5ev9PkQdLU9-87" vertex="1">
          <mxGeometry x="5" y="40" width="70" height="10" as="geometry" />
        </mxCell>
        <mxCell id="siB9gwOaP5ev9PkQdLU9-97" value="" style="rounded=1;whiteSpace=wrap;html=1;fillColor=#dae8fc;strokeColor=#6c8ebf;" parent="siB9gwOaP5ev9PkQdLU9-87" vertex="1">
          <mxGeometry x="5" y="50" width="70" height="10" as="geometry" />
        </mxCell>
        <mxCell id="siB9gwOaP5ev9PkQdLU9-98" value="" style="rounded=1;whiteSpace=wrap;html=1;fillColor=#dae8fc;strokeColor=#6c8ebf;" parent="siB9gwOaP5ev9PkQdLU9-87" vertex="1">
          <mxGeometry x="5" y="60" width="70" height="10" as="geometry" />
        </mxCell>
        <mxCell id="siB9gwOaP5ev9PkQdLU9-99" value="" style="rounded=1;whiteSpace=wrap;html=1;fillColor=#f8cecc;strokeColor=#b85450;" parent="siB9gwOaP5ev9PkQdLU9-87" vertex="1">
          <mxGeometry x="5" y="70" width="70" height="10" as="geometry" />
        </mxCell>
        <mxCell id="siB9gwOaP5ev9PkQdLU9-102" value="" style="group" parent="1" vertex="1" connectable="0">
          <mxGeometry x="240" y="100" width="134.58000000000004" height="130" as="geometry" />
        </mxCell>
        <mxCell id="uq200lhuQBNym-ZLv9r4-11" value="" style="group;fillColor=default;gradientColor=none;strokeColor=none;" parent="siB9gwOaP5ev9PkQdLU9-102" connectable="0" vertex="1">
          <mxGeometry x="24.79105263157895" width="84.99789473684211" height="85" as="geometry" />
        </mxCell>
        <mxCell id="uq200lhuQBNym-ZLv9r4-2" value="" style="rounded=1;whiteSpace=wrap;html=1;arcSize=7;fillColor=#1ba1e2;strokeColor=#006EAF;fontColor=#ffffff;" parent="uq200lhuQBNym-ZLv9r4-11" vertex="1">
          <mxGeometry width="84.99789473684211" height="85" as="geometry" />
        </mxCell>
        <mxCell id="uq200lhuQBNym-ZLv9r4-3" value="CPU" style="rounded=1;whiteSpace=wrap;html=1;fillColor=#cce5ff;strokeColor=#146994;shadow=1;" parent="uq200lhuQBNym-ZLv9r4-11" vertex="1">
          <mxGeometry x="7.083157894736843" y="7.083333333333334" width="70.83157894736843" height="70.83333333333334" as="geometry" />
        </mxCell>
        <mxCell id="uq200lhuQBNym-ZLv9r4-13" value="DRAM" style="pointerEvents=1;shadow=0;dashed=0;html=1;strokeColor=#d79b00;fillColor=#ffcd28;labelPosition=center;verticalLabelPosition=bottom;verticalAlign=top;align=center;outlineConnect=0;shape=mxgraph.veeam.ram;fillStyle=auto;direction=north;gradientColor=#ffa500;" parent="siB9gwOaP5ev9PkQdLU9-102" vertex="1">
          <mxGeometry y="3.541666666666667" width="21.24947368421053" height="77.91666666666667" as="geometry" />
        </mxCell>
        <mxCell id="uq200lhuQBNym-ZLv9r4-48" value="DRAM" style="pointerEvents=1;shadow=0;dashed=0;html=1;strokeColor=#d79b00;fillColor=#ffcd28;labelPosition=center;verticalLabelPosition=bottom;verticalAlign=top;align=center;outlineConnect=0;shape=mxgraph.veeam.ram;fillStyle=auto;direction=south;gradientColor=#ffa500;flipV=1;" parent="siB9gwOaP5ev9PkQdLU9-102" vertex="1">
          <mxGeometry x="113.33052631578948" y="3.541666666666667" width="21.24947368421053" height="77.91666666666667" as="geometry" />
        </mxCell>
        <mxCell id="IkylSo1uZ2_LeTpLnhAb-2" value="x8 PCIe" style="text;html=1;align=center;verticalAlign=middle;resizable=0;points=[];autosize=1;strokeColor=none;fillColor=none;fontFamily=Helvetica;fontSize=11;fontColor=default;labelBackgroundColor=default;" vertex="1" parent="siB9gwOaP5ev9PkQdLU9-102">
          <mxGeometry x="71.00000000000004" y="102" width="60" height="30" as="geometry" />
        </mxCell>
        <mxCell id="siB9gwOaP5ev9PkQdLU9-106" value="" style="group" parent="1" vertex="1" connectable="0">
          <mxGeometry x="480" y="100" width="134.58" height="85" as="geometry" />
        </mxCell>
        <mxCell id="siB9gwOaP5ev9PkQdLU9-107" value="" style="group;fillColor=default;gradientColor=none;strokeColor=none;" parent="siB9gwOaP5ev9PkQdLU9-106" connectable="0" vertex="1">
          <mxGeometry x="24.79105263157895" width="84.99789473684211" height="85" as="geometry" />
        </mxCell>
        <mxCell id="siB9gwOaP5ev9PkQdLU9-108" value="" style="rounded=1;whiteSpace=wrap;html=1;arcSize=7;fillColor=#d80073;strokeColor=#A50040;fontColor=#ffffff;" parent="siB9gwOaP5ev9PkQdLU9-107" vertex="1">
          <mxGeometry width="84.99789473684211" height="85" as="geometry" />
        </mxCell>
        <mxCell id="siB9gwOaP5ev9PkQdLU9-109" value="CPU" style="rounded=1;whiteSpace=wrap;html=1;fillColor=#f8cecc;strokeColor=#b85450;shadow=1;" parent="siB9gwOaP5ev9PkQdLU9-107" vertex="1">
          <mxGeometry x="7.083157894736843" y="7.083333333333334" width="70.83157894736843" height="70.83333333333334" as="geometry" />
        </mxCell>
        <mxCell id="siB9gwOaP5ev9PkQdLU9-110" value="DRAM" style="pointerEvents=1;shadow=0;dashed=0;html=1;strokeColor=#d79b00;fillColor=#ffcd28;labelPosition=center;verticalLabelPosition=bottom;verticalAlign=top;align=center;outlineConnect=0;shape=mxgraph.veeam.ram;fillStyle=auto;direction=north;gradientColor=#ffa500;" parent="siB9gwOaP5ev9PkQdLU9-106" vertex="1">
          <mxGeometry y="3.541666666666667" width="21.24947368421053" height="77.91666666666667" as="geometry" />
        </mxCell>
        <mxCell id="siB9gwOaP5ev9PkQdLU9-111" value="DRAM" style="pointerEvents=1;shadow=0;dashed=0;html=1;strokeColor=#d79b00;fillColor=#ffcd28;labelPosition=center;verticalLabelPosition=bottom;verticalAlign=top;align=center;outlineConnect=0;shape=mxgraph.veeam.ram;fillStyle=auto;direction=south;gradientColor=#ffa500;flipV=1;" parent="siB9gwOaP5ev9PkQdLU9-106" vertex="1">
          <mxGeometry x="113.33052631578948" y="3.541666666666667" width="21.24947368421053" height="77.91666666666667" as="geometry" />
        </mxCell>
        <mxCell id="j0kA9mQv0XeUaCMalJ7W-1" style="edgeStyle=orthogonalEdgeStyle;rounded=0;orthogonalLoop=1;jettySize=auto;html=1;endArrow=none;endFill=0;strokeWidth=4;entryX=0.5;entryY=1;entryDx=0;entryDy=0;" parent="1" source="uq200lhuQBNym-ZLv9r4-2" edge="1" target="siB9gwOaP5ev9PkQdLU9-72">
          <mxGeometry relative="1" as="geometry">
            <mxPoint x="250" y="330" as="targetPoint" />
            <Array as="points">
              <mxPoint x="310" y="230" />
              <mxPoint x="245" y="230" />
            </Array>
          </mxGeometry>
        </mxCell>
        <mxCell id="j0kA9mQv0XeUaCMalJ7W-4" style="edgeStyle=orthogonalEdgeStyle;rounded=0;orthogonalLoop=1;jettySize=auto;html=1;strokeColor=default;strokeWidth=4;align=center;verticalAlign=middle;fontFamily=Helvetica;fontSize=11;fontColor=default;labelBackgroundColor=default;endArrow=none;endFill=0;exitX=0.5;exitY=1;exitDx=0;exitDy=0;" parent="1" source="siB9gwOaP5ev9PkQdLU9-88" edge="1">
          <mxGeometry relative="1" as="geometry">
            <mxPoint x="310" y="230" as="targetPoint" />
            <Array as="points">
              <mxPoint x="376" y="230" />
            </Array>
          </mxGeometry>
        </mxCell>
        <mxCell id="IkylSo1uZ2_LeTpLnhAb-1" value="x4 PCIe" style="text;html=1;align=center;verticalAlign=middle;resizable=0;points=[];autosize=1;strokeColor=none;fillColor=none;fontFamily=Helvetica;fontSize=11;fontColor=default;labelBackgroundColor=default;" vertex="1" parent="1">
          <mxGeometry x="240.00000000000003" y="300.2" width="60" height="30" as="geometry" />
        </mxCell>
        <mxCell id="IkylSo1uZ2_LeTpLnhAb-3" value="x8 PCIe" style="text;html=1;align=center;verticalAlign=middle;resizable=0;points=[];autosize=1;strokeColor=none;fillColor=none;fontFamily=Helvetica;fontSize=11;fontColor=default;labelBackgroundColor=default;" vertex="1" parent="1">
          <mxGeometry x="551" y="202" width="60" height="30" as="geometry" />
        </mxCell>
        <mxCell id="IkylSo1uZ2_LeTpLnhAb-5" style="edgeStyle=orthogonalEdgeStyle;rounded=0;orthogonalLoop=1;jettySize=auto;html=1;strokeColor=default;strokeWidth=4;align=center;verticalAlign=middle;fontFamily=Helvetica;fontSize=11;fontColor=default;labelBackgroundColor=default;endArrow=none;endFill=0;exitX=0.5;exitY=1;exitDx=0;exitDy=0;" edge="1" parent="1">
          <mxGeometry relative="1" as="geometry">
            <mxPoint x="616" y="330" as="sourcePoint" />
            <mxPoint x="550" y="230" as="targetPoint" />
            <Array as="points">
              <mxPoint x="616" y="230" />
            </Array>
          </mxGeometry>
        </mxCell>
        <mxCell id="IkylSo1uZ2_LeTpLnhAb-6" value="x4 PCIe" style="text;html=1;align=center;verticalAlign=middle;resizable=0;points=[];autosize=1;strokeColor=none;fillColor=none;fontFamily=Helvetica;fontSize=11;fontColor=default;labelBackgroundColor=default;" vertex="1" parent="1">
          <mxGeometry x="614.58" y="300.2" width="60" height="30" as="geometry" />
        </mxCell>
        <mxCell id="IkylSo1uZ2_LeTpLnhAb-7" value="x4 PCIe" style="text;html=1;align=center;verticalAlign=middle;resizable=0;points=[];autosize=1;strokeColor=none;fillColor=none;fontFamily=Helvetica;fontSize=11;fontColor=default;labelBackgroundColor=default;" vertex="1" parent="1">
          <mxGeometry x="480" y="300.2" width="60" height="30" as="geometry" />
        </mxCell>
      </root>
    </mxGraphModel>
  </diagram>
</mxfile>
